<svg xmlns="http://www.w3.org/2000/svg" xmlns:xlink="http://www.w3.org/1999/xlink" viewBox="0 0 73 94"><path d="M 52.627 42.783 C 52.627 47.274 49.802 50.915 45.289 50.915 C 40.775 50.915 37.115 47.274 37.115 42.783 C 37.115 38.292 40.775 34.651 45.289 34.651 C 46.981 34.651 48.274 38.269 49.578 39.146 C 51.752 40.608 52.627 39.976 52.627 42.784 Z" fill="rgb(255,255,255)" stroke="rgb(255,255,255)" stroke-miterlimit="10" stroke-dasharray="" opacity="0.5"></path><path d="M 53.462 50.176 C 53.462 54.667 49.802 58.308 45.289 58.308 C 45.289 58.308 43.442 55.668 42.137 54.792 C 39.963 53.331 37.95 52.983 37.95 50.176 C 37.95 45.685 40.775 42.044 45.289 42.044 C 49.802 42.044 53.462 45.685 53.462 50.176 Z" fill="rgb(255,255,255)" stroke="rgb(255,255,255)" stroke-miterlimit="10" stroke-dasharray="" opacity="0.5"></path><path d="M 37.607 46.119 L 45.289 50.915 L 45.289 58.308 L 37.607 53.364 Z M 45.289 34.649 L 52.97 39.446 L 52.97 46.84 L 45.289 41.894 Z" fill="rgb(255,255,255)" stroke="rgb(255,255,255)" stroke-miterlimit="10" stroke-dasharray=""></path><path d="M 18.88 42.423 C 18.88 37.932 22.539 34.291 27.053 34.291 C 31.567 34.291 35.226 37.932 35.226 42.423 C 35.226 46.915 31.567 50.556 27.053 50.556 C 22.539 50.556 18.88 46.915 18.88 42.423 Z" fill="rgb(255,255,255)" stroke="rgb(255,255,255)" stroke-miterlimit="10" stroke-dasharray="" opacity="0.5"></path><path d="M 18.88 49.816 C 18.88 45.325 22.539 41.684 27.053 41.684 C 31.567 41.684 35.226 45.325 35.226 49.816 C 35.226 54.308 31.567 57.949 27.053 57.949 C 22.539 57.949 18.88 54.308 18.88 49.816 Z" fill="rgb(255,255,255)" stroke="rgb(255,255,255)" stroke-miterlimit="10" stroke-dasharray="" opacity="0.5"></path><path d="M 18.722 34.29 L 27.054 34.29 L 27.054 57.949 L 18.722 57.949 Z M 37.607 46.119 L 37.607 53.364 L 45.289 58.308 L 45.289 50.915 Z M 45.289 41.894 L 45.202 34.481 L 52.97 39.446 L 52.97 46.84 Z" fill="rgb(255,255,255)" stroke="rgb(255,255,255)" stroke-miterlimit="10" stroke-dasharray=""></path></svg>